<svg id="Layer_1" enable-background="new 0 0 511.693 511.693" height="512" viewBox="0 0 511.693 511.693" width="512" xmlns="http://www.w3.org/2000/svg"><path d="m268.088 341.235v-87.715c0-42.37-34.471-76.841-76.841-76.841h-18.061l-107.054 241.398h125.114c42.371 0 76.842-34.471 76.842-76.842z"/><path d="m198.421 481.693h-145.595v30h406.041v-30h-166.807v-52.994c58.762-29.78 99.135-90.781 99.135-161.041v-92.864l10.147-10.148c14.631-14.631 23.976-33.135 27.091-53.198h30.434v-30h-30.444c-7.227-46.084-47.199-81.448-95.279-81.448h-18.872c-38.11 0-72.717 22.511-88.167 57.348l-39.615 89.332h4.757c58.913 0 106.841 47.929 106.841 106.841v87.715c0 56.502-44.087 102.891-99.667 106.595zm127.542-417.366h30.001v30h-30.001zm-63.903 417.366h-33.638v-34.48c11.565-1.128 22.811-3.357 33.638-6.573z"/></svg>