<svg viewBox="0 0 48 48" xmlns="http://www.w3.org/2000/svg">
<path d="M23.9999 9.00001V21.9L32.6999 30.3L30.2999 32.7L21 23.1V9.00001H23.9999Z"/>
<path d="M24 3C29.5695 3 34.9109 5.21248 38.8492 9.15077C42.7876 13.0891 45 18.4305 45 24C45 29.5696 42.7876 34.911 38.8492 38.8493C34.9109 42.7876 29.5695 45 24 45C18.4304 45 13.089 42.7876 9.15073 38.8493C5.2125 34.911 3.00002 29.5696 3.00002 24C3.00002 18.4305 5.2125 13.0891 9.15073 9.15077C13.089 5.21248 18.4304 3 24 3ZM24 0C19.2532 0 14.6131 1.40758 10.6663 4.04472C6.71953 6.68189 3.64338 10.4302 1.8269 14.8156C0.0103979 19.2011 -0.464881 24.0267 0.461165 28.6822C1.38721 33.3378 3.67298 37.6142 7.02941 40.9704C10.3859 44.3272 14.6623 46.6128 19.3178 47.5388C23.9733 48.4648 28.7989 47.9896 33.1844 46.1732C37.5697 44.3568 41.318 41.2804 43.9552 37.3337C46.5924 33.387 48 28.7468 48 24C48 17.6348 45.4712 11.5303 40.9704 7.02945C36.4696 2.52857 30.3651 0 24 0Z"/>
</svg>
