<svg viewBox="0 0 48 48" fill="none" xmlns="http://www.w3.org/2000/svg">
<path d="M1.09091 0C0.488399 0 0 0.4884 0 1.09091V46.9091C0 47.5118 0.488399 48 1.09091 48H46.9091C47.5114 48 48 47.5118 48 46.9091C48 46.3064 47.5114 45.8182 46.9091 45.8182H2.18181V1.09091C2.18181 0.4884 1.69341 0 1.09091 0ZM33.8181 12.5455C33.1388 12.5493 32.6692 13.1657 32.676 13.6875C32.7028 14.2588 33.2469 14.7542 33.8181 14.7273H39.8181L23.9658 29.625C21.9772 27.9705 19.9607 26.3115 18.2727 24.8693C18.0487 24.6304 17.7127 24.5012 17.3863 24.5284C17.1405 24.5464 16.9019 24.6502 16.7215 24.8182L5.81246 34.6364C5.38846 35.0201 5.36056 35.7636 5.74428 36.1875C6.12814 36.6115 6.85451 36.6396 7.27841 36.2557L17.4715 27.0682L23.2329 31.8579C23.6305 32.2511 24.3436 32.2592 24.7499 31.8748L41.4544 16.1761V22.3636C41.4462 22.94 41.969 23.4715 42.5453 23.4715C43.1217 23.4715 43.6444 22.94 43.6362 22.3636V13.6364C43.6362 13.0652 43.1166 12.5455 42.5453 12.5455H33.8181Z"/>
</svg>
