<svg viewBox="0 0 48 48" fill="none" xmlns="http://www.w3.org/2000/svg">
<path d="M23.9997 42.3531C23.7923 42.3535 23.5874 42.308 23.3995 42.2202C23.2116 42.1324 23.0454 42.0042 22.9127 41.8448C22.3267 41.139 8.46986 24.4095 8.46986 15.5295C8.46986 11.4108 10.106 7.46083 13.0185 4.54847C15.9309 1.63614 19.8809 0 23.9997 0C28.1185 0 32.0686 1.63614 34.981 4.54847C37.8935 7.46083 39.5296 11.4108 39.5296 15.5295C39.5296 24.4095 25.6727 41.139 25.0868 41.8448C24.9541 42.0042 24.7879 42.1324 24.6 42.2202C24.4121 42.308 24.2071 42.3535 23.9997 42.3531ZM23.9997 2.82354C20.6298 2.82354 17.3979 4.1622 15.015 6.54503C12.6321 8.92786 11.2934 12.1597 11.2934 15.5295C11.2934 21.5083 19.6514 33.2401 23.9997 38.7037C28.3481 33.2401 36.706 21.5083 36.706 15.5295C36.706 12.1597 35.3673 8.92786 32.9844 6.54503C30.6015 4.1622 27.3696 2.82354 23.9997 2.82354Z"/>
<path d="M23.9997 22.5883C22.6036 22.5883 21.2388 22.1743 20.0779 21.3987C18.9171 20.6231 18.0123 19.5206 17.478 18.2307C16.9437 16.9409 16.8039 15.5216 17.0763 14.1523C17.3487 12.7831 18.021 11.5253 19.0082 10.5381C19.9955 9.5509 21.2533 8.87859 22.6226 8.60626C23.9919 8.33389 25.4113 8.47365 26.7011 9.00793C27.991 9.54218 29.0935 10.447 29.8691 11.6078C30.6448 12.7686 31.0588 14.1333 31.0588 15.5295C31.0588 16.4564 30.8762 17.3743 30.5215 18.2307C30.1667 19.0872 29.6467 19.8654 28.9913 20.5208C28.3357 21.1763 27.5576 21.6962 26.7011 22.051C25.8447 22.4057 24.9267 22.5883 23.9997 22.5883ZM23.9997 11.2942C23.162 11.2942 22.3432 11.5426 21.6466 12.0079C20.9501 12.4733 20.4073 13.1348 20.0867 13.9086C19.7662 14.6826 19.6822 15.5342 19.8457 16.3557C20.0091 17.1773 20.4125 17.9319 21.0048 18.5243C21.5972 19.1166 22.3518 19.52 23.1734 19.6834C23.9951 19.8468 24.8466 19.7629 25.6206 19.4424C26.3945 19.1218 27.056 18.579 27.5214 17.8825C27.9868 17.186 28.2352 16.3671 28.2352 15.5295C28.2352 14.4062 27.7889 13.3289 26.9946 12.5346C26.2004 11.7403 25.123 11.2942 23.9997 11.2942Z"/>
<path d="M46.5889 48H1.41106C1.17077 48 0.934484 47.9386 0.72458 47.8217C0.514676 47.7048 0.338102 47.5362 0.211574 47.3317C0.0850461 47.1275 0.0127527 46.8942 0.00153849 46.6544C-0.00967567 46.4143 0.0405608 46.1754 0.147491 45.9603L5.79474 34.666C5.9116 34.4308 6.09177 34.2328 6.31502 34.0944C6.53823 33.956 6.79566 33.8826 7.0583 33.8825H12.7055C13.08 33.8825 13.4391 34.0312 13.7039 34.2959C13.9686 34.5607 14.1174 34.9198 14.1174 35.2942C14.1174 35.6687 13.9686 36.0277 13.7039 36.2925C13.4391 36.5573 13.08 36.706 12.7055 36.706H7.93363L3.69819 45.1767H44.3017L40.0664 36.706H35.2945C34.92 36.706 34.561 36.5573 34.2962 36.2925C34.0314 36.0277 33.8827 35.6687 33.8827 35.2942C33.8827 34.9198 34.0314 34.5607 34.2962 34.2959C34.561 34.0312 34.92 33.8825 35.2945 33.8825H40.9417C41.2044 33.8826 41.4618 33.956 41.685 34.0944C41.9082 34.2328 42.0884 34.4308 42.2053 34.666L47.8527 45.9603C47.9594 46.1754 48.0098 46.4143 47.9984 46.6544C47.9874 46.8942 47.915 47.1275 47.7883 47.3317C47.6621 47.5362 47.4855 47.7048 47.2754 47.8217C47.0653 47.9386 46.8294 48 46.5889 48Z"/>
</svg>
