<svg viewBox="0 0 48 48" fill="none" xmlns="http://www.w3.org/2000/svg">
<path d="M19.5588 43.8154C20.9124 43.8154 22.3336 43.676 23.6195 43.397C23.8225 43.3272 23.9579 43.3272 24.1609 43.2575L28.5599 47.7908C28.6953 47.9303 28.8306 48 29.0337 48C29.2367 48 29.3721 47.9303 29.5074 47.7908C29.5751 47.721 32.6206 44.0247 31.064 39.9099C36.0721 36.1438 39.0499 30.0762 39.0499 23.6599V10.5483L40.3358 10.4088C44.1934 10.0601 47.2389 7.06112 47.848 3.0858L47.9834 1.96992C48.0511 1.41198 47.9157 0.923779 47.5096 0.505323C47.1036 0.0868679 46.6298 -0.052617 46.0884 0.0171255L45.0056 0.15661C41.9601 0.644809 39.456 2.80683 38.3732 5.66627C37.358 2.80683 34.8539 0.644809 31.7408 0.15661L30.6579 0.0171255C30.1165 -0.052617 29.6428 0.0868679 29.2367 0.505323C28.8306 0.923779 28.6953 1.41198 28.763 1.96992L28.8983 3.0858C29.4397 6.99138 32.5529 10.0601 36.4105 10.4088L37.6964 10.5483V12.4313C37.6964 15.0118 36.6812 17.5225 34.9216 19.3358C33.0943 21.1491 30.7256 22.1953 28.2215 22.1953L0.676776 22.0558C0.473743 22.0558 0.338388 22.1255 0.203033 22.265C0.0676776 22.4045 0 22.544 0 22.7532V23.6599C0 34.7489 8.79808 43.8154 19.5588 43.8154ZM39.253 8.03752C39.5237 4.68988 42.0278 2.03966 45.2086 1.55146L46.2914 1.41198C46.2914 1.41198 46.2914 1.41198 46.3591 1.41198C46.4945 1.41198 46.5622 1.48172 46.5622 1.48172C46.6298 1.55146 46.6975 1.62121 46.6298 1.76069L46.4945 2.87657C46.0207 6.15447 43.449 8.6652 40.2005 9.01392L39.1176 9.08366L39.253 8.03752ZM36.6136 9.01392C33.365 8.73495 30.7933 6.15447 30.3195 2.87657L30.1842 1.76069C30.1842 1.62121 30.2519 1.55146 30.2519 1.48172C30.3195 1.41198 30.3872 1.41198 30.4549 1.41198C30.4549 1.41198 30.4549 1.41198 30.5226 1.41198L31.6054 1.55146C34.7863 2.03966 37.2227 4.68988 37.561 8.03752L37.6287 9.1534L36.6136 9.01392ZM19.5588 42.4206C9.9486 42.4206 2.098 34.6792 1.42123 24.985L3.51923 25.4034C6.09098 25.9614 7.91827 28.3326 7.91827 30.9828C7.91827 34.8884 11.0314 38.0965 14.8214 38.0965H19.1527L23.0104 42.0719C21.8598 42.2811 20.7093 42.4206 19.5588 42.4206ZM28.966 46.2564L20.574 37.6083C21.9275 36.7017 25.2437 34.9581 28.4246 38.1663C31.5377 41.3744 29.8458 44.8616 28.966 46.2564ZM28.2215 23.5901C28.2892 23.5901 28.2892 23.5901 28.2215 23.5901C31.1317 23.5901 33.8388 22.4742 35.8691 20.382C36.6136 19.6148 37.2227 18.7779 37.6964 17.8712V23.6599C37.6964 29.5182 34.9893 35.0976 30.4549 38.6545C30.1842 38.1663 29.7781 37.6781 29.3044 37.1899C25.1761 32.9356 20.7093 35.7253 19.4235 36.7017H14.686C11.6405 36.7017 9.13647 34.1213 9.13647 30.9828C9.13647 27.6352 6.83543 24.706 3.65459 24.0086L1.35355 23.5204V23.4506L28.2215 23.5901Z"/>
<path d="M13.5352 30.9823C14.9565 30.9823 16.107 29.7967 16.107 28.3321C16.107 26.8675 14.9565 25.7516 13.5352 25.7516C12.114 25.7516 11.0312 26.8675 11.0312 28.3321C11.0312 29.7967 12.114 30.9823 13.5352 30.9823ZM13.5352 27.1465C14.212 27.1465 14.7534 27.7044 14.7534 28.3321C14.7534 28.9598 14.212 29.5875 13.5352 29.5875C12.8585 29.5875 12.3847 29.0296 12.3847 28.3321C12.3847 27.6347 12.8585 27.1465 13.5352 27.1465Z"/>
</svg>
