<?xml version="1.0" encoding="iso-8859-1"?>
<!-- Generator: Adobe Illustrator 19.0.0, SVG Export Plug-In . SVG Version: 6.00 Build 0)  -->
<svg version="1.1" id="Capa_1" xmlns="http://www.w3.org/2000/svg" xmlns:xlink="http://www.w3.org/1999/xlink" x="0px" y="0px"
	 viewBox="0 0 512.001 512.001" style="enable-background:new 0 0 512.001 512.001;" xml:space="preserve">
<g>
	<g>
		<path d="M510.871,470.046c-3.135-7.676-11.968-11.338-19.571-8.174c-5.83,2.388-11.47,5.376-16.875,8.965
			c-22.295,14.854-52.064,14.854-74.359,0c-32.402-21.592-74.238-21.592-106.64,0c-22.295,14.854-51.064,14.854-73.359,0
			c-32.402-21.592-74.238-21.592-106.64,0c-22.295,14.854-52.064,14.854-74.359,0c-5.859-3.911-12.144-7.163-18.662-9.683
			c-7.72-3.018-16.421,0.864-19.395,8.584c-2.988,7.734,0.864,16.421,8.584,19.395c4.482,1.729,8.789,3.97,12.832,6.665
			c32.402,21.592,75.238,21.592,107.64,0c22.295-14.854,51.064-14.854,73.359,0c32.402,21.592,74.238,21.592,106.64,0
			c22.295-14.854,51.064-14.854,73.359,0c16.201,10.796,34.761,16.201,53.32,16.201c18.559,0,38.119-5.405,54.306-16.201
			c3.721-2.476,7.632-4.526,11.646-6.182C510.358,486.467,514.02,477.707,510.871,470.046z"/>
	</g>
</g>
<g>
	<g>
		<path d="M510.871,409.797c-3.135-7.676-11.968-11.338-19.57-8.174c-5.83,2.388-11.47,5.376-16.875,8.965
			c-22.295,14.854-52.064,14.854-74.359,0c-32.402-21.592-74.238-21.592-106.64,0c-22.295,14.854-51.064,14.854-73.359,0
			c-32.402-21.592-74.238-21.592-106.64,0c-22.295,14.854-52.064,14.854-74.359,0c-5.859-3.911-12.144-7.163-18.662-9.683
			c-7.72-2.988-16.421,0.85-19.395,8.584c-2.989,7.735,0.864,16.422,8.583,19.395c4.482,1.729,8.789,3.97,12.832,6.665
			c32.402,21.592,75.238,21.592,107.64,0c22.295-14.854,51.064-14.854,73.359,0c32.402,21.592,74.238,21.592,106.64,0
			c22.295-14.854,51.064-14.854,73.359,0c16.201,10.796,34.761,16.201,53.32,16.201c18.559,0,38.119-5.405,54.306-16.201
			c3.721-2.476,7.632-4.526,11.646-6.182C510.358,426.217,514.02,417.458,510.871,409.797z"/>
	</g>
</g>
<g>
	<g>
		<path d="M346,0.002h-60c-8.291,0-15,6.709-15,15v47h75c5.136,0,10.151,0.529,15,1.518V15.002C361,6.711,354.291,0.002,346,0.002z"
			/>
	</g>
</g>
<g>
	<g>
		<path d="M79.984,301.478c-7.712,2.571-11.971,10.818-9.606,18.594l20.75,68.222c0.593,0.192,0.659,0.212,1.252,0.405
			c43.068-31.368,100.335-32.391,144.33-3.071c1.353,0.903,2.864,1.326,4.29,2.029V247.807L79.984,301.478z"/>
	</g>
</g>
<g>
	<g>
		<path d="M432.006,301.473l-161.005-53.668v140.555c1.963-0.859,3.983-1.533,5.819-2.756
			c43.645-29.068,100.344-28.281,143.283,2.364c0.436-0.145,0.493-0.163,0.928-0.306l20.581-67.59
			C443.981,312.295,439.721,304.044,432.006,301.473z"/>
	</g>
</g>
<g>
	<g>
		<path d="M346,92.001H166.001c-24.814,0-45,20.186-45,45v119.193l130.253-43.418c3.076-1.025,6.416-1.025,9.492,0L391,256.194
			V137.001C391,112.187,370.814,92.001,346,92.001z M196.001,182.001c-8.284,0-15-6.716-15-15c0-8.286,6.716-15,15-15
			s15,6.714,15,15C211.001,175.284,204.284,182.001,196.001,182.001z M256.001,182.001c-8.284,0-15-6.717-15-15
			c0-8.286,6.716-15,15-15c8.284,0,15,6.714,15,15C271.001,175.285,264.285,182.001,256.001,182.001z M316.001,182.001
			c-8.284,0-15-6.716-15-15c0-8.286,6.716-15,15-15c8.284,0,15,6.714,15,15C331,175.285,324.285,182.001,316.001,182.001z"/>
	</g>
</g>
<g>
	<g>
		<path d="M226.001,0.002h-60c-8.291,0-15,6.709-15,15V63.52c4.849-0.989,9.864-1.518,15-1.518h75v-47
			C241.001,6.711,234.292,0.002,226.001,0.002z"/>
	</g>
</g>
<g>
</g>
<g>
</g>
<g>
</g>
<g>
</g>
<g>
</g>
<g>
</g>
<g>
</g>
<g>
</g>
<g>
</g>
<g>
</g>
<g>
</g>
<g>
</g>
<g>
</g>
<g>
</g>
<g>
</g>
</svg>
