<svg width="448" height="400" viewBox="0 0 448 400" fill="none" xmlns="http://www.w3.org/2000/svg">
<path d="M271.8 361.492L251.052 320H152C134.299 319.976 117.226 313.44 104.034 301.637C90.843 289.834 82.456 273.589 80.472 256H64.405C66.4202 277.848 76.5165 298.158 92.7177 312.955C108.919 327.751 130.059 335.969 152 336H232V352H152C125.824 351.959 100.625 342.055 81.4249 324.263C62.2252 306.471 50.4352 282.097 48.405 256H32.405C36.553 318.439 88.528 368 152.005 368H208.005V384H152C79.708 384 20.582 327.262 16.405 256H0.404999C4.605 336.085 70.888 400 152.005 400H272C282.083 399.965 292.144 399.057 302.071 397.287C289.25 387.962 278.867 375.683 271.8 361.492V361.492Z" fill="black"/>
<path d="M152 304H243.053L235.053 288H152C142.784 287.987 133.853 284.798 126.715 278.969C119.576 273.14 114.665 265.028 112.809 256H96.639C98.5698 269.313 105.225 281.488 115.389 290.3C125.553 299.113 138.548 303.975 152 304Z" fill="black"/>
<path d="M405.789 122.227C392.467 108.794 376.608 98.1435 359.134 90.8943C341.659 83.6451 322.918 79.9419 304 80H280V64H287.558L279.609 40.039C276.144 29.6724 269.85 20.4809 261.437 13.5025C253.025 6.52412 242.828 2.03671 232 0.546997V47.039C232.001 54.6742 234.555 62.0897 239.257 68.1057C243.958 74.1217 250.536 78.3927 257.945 80.239C259.673 80.674 261.206 81.6734 262.302 83.0788C263.397 84.4842 263.992 86.2151 263.992 87.997C263.992 89.7789 263.397 91.5098 262.302 92.9152C261.206 94.3206 259.673 95.32 257.945 95.755C250.535 97.6016 243.956 101.873 239.255 107.891C234.553 113.908 232 121.325 232 128.961V175.453C242.833 173.96 253.032 169.468 261.446 162.484C269.861 155.5 276.154 146.302 279.617 135.93L287.166 113.166L278.812 111.914L281.188 96.086L298.969 98.75L312.297 102.367C326.775 106.302 339.332 115.362 347.631 127.862C355.93 140.361 359.406 155.449 357.414 170.32C355.421 185.191 348.095 198.832 336.799 208.706C325.502 218.58 311.004 224.015 296 224H24C19.0529 224.015 14.2317 225.561 10.1984 228.426C6.16514 231.291 3.11752 235.334 1.474 240H168V256H129.475C131.118 260.666 134.166 264.709 138.199 267.574C142.232 270.439 147.053 271.985 152 272H227.054L216.844 251.578L231.156 244.422L286.109 354.336C291.907 366.035 300.412 376.182 310.918 383.935C321.424 391.688 333.627 396.823 346.516 398.914L272.844 251.578L287.156 244.422L354.591 379.291C411.552 348.965 448 288.907 448 224C448.059 205.085 444.357 186.348 437.111 168.876C429.865 151.405 419.218 135.548 405.789 122.227V122.227ZM200 256H184V240H200V256Z" fill="black"/>
</svg>
